<svg width="17" height="16" viewBox="0 0 17 16" fill="none" xmlns="http://www.w3.org/2000/svg">
<path d="M2.27778 0H14.7222C15.1937 0 15.6459 0.187301 15.9793 0.520699C16.3127 0.854097 16.5 1.30628 16.5 1.77778V14.2222C16.5 14.6937 16.3127 15.1459 15.9793 15.4793C15.6459 15.8127 15.1937 16 14.7222 16H2.27778C1.80628 16 1.3541 15.8127 1.0207 15.4793C0.687301 15.1459 0.5 14.6937 0.5 14.2222V1.77778C0.5 1.30628 0.687301 0.854097 1.0207 0.520699C1.3541 0.187301 1.80628 0 2.27778 0ZM8.5 6.22222C8.0285 6.22222 7.57632 6.40952 7.24292 6.74292C6.90952 7.07632 6.72222 7.5285 6.72222 8C6.72222 8.4715 6.90952 8.92368 7.24292 9.25708C7.57632 9.59048 8.0285 9.77778 8.5 9.77778C8.9715 9.77778 9.42368 9.59048 9.75708 9.25708C10.0905 8.92368 10.2778 8.4715 10.2778 8C10.2778 7.5285 10.0905 7.07632 9.75708 6.74292C9.42368 6.40952 8.9715 6.22222 8.5 6.22222ZM4.05556 1.77778C3.58406 1.77778 3.13187 1.96508 2.79848 2.29848C2.46508 2.63187 2.27778 3.08406 2.27778 3.55556C2.27778 4.02705 2.46508 4.47924 2.79848 4.81263C3.13187 5.14603 3.58406 5.33333 4.05556 5.33333C4.52705 5.33333 4.97924 5.14603 5.31263 4.81263C5.64603 4.47924 5.83333 4.02705 5.83333 3.55556C5.83333 3.08406 5.64603 2.63187 5.31263 2.29848C4.97924 1.96508 4.52705 1.77778 4.05556 1.77778ZM12.9444 10.6667C12.4729 10.6667 12.0208 10.854 11.6874 11.1874C11.354 11.5208 11.1667 11.9729 11.1667 12.4444C11.1667 12.9159 11.354 13.3681 11.6874 13.7015C12.0208 14.0349 12.4729 14.2222 12.9444 14.2222C13.4159 14.2222 13.8681 14.0349 14.2015 13.7015C14.5349 13.3681 14.7222 12.9159 14.7222 12.4444C14.7222 11.9729 14.5349 11.5208 14.2015 11.1874C13.8681 10.854 13.4159 10.6667 12.9444 10.6667Z" fill="#9F9F9F"/>
</svg>
